<?xml version="1.0" standalone="no"?>
<!DOCTYPE svg PUBLIC "-//W3C//DTD SVG 20010904//EN"
 "http://www.w3.org/TR/2001/REC-SVG-20010904/DTD/svg10.dtd">
<svg version="1.0" xmlns="http://www.w3.org/2000/svg"
 width="731.000000pt" height="278.000000pt" viewBox="0 0 731.000000 278.000000"
 preserveAspectRatio="xMidYMid meet">

<g transform="translate(0.000000,278.000000) scale(0.100000,-0.100000)"
fill="#000000" stroke="none">
<path d="M6238 1306 c-72 -26 -128 -55 -220 -118 l-57 -38 -2980 0 -2981 0 0
-55 0 -55 3044 0 3044 0 48 40 c83 69 147 95 234 94 85 -1 142 -22 222 -81 27
-19 52 -33 55 -29 11 11 -21 89 -59 147 -21 31 -57 69 -79 85 -37 25 -53 29
-123 32 -65 2 -94 -2 -148 -22z"/>
<path d="M2065 685 c-50 -18 -66 -40 -99 -134 -30 -86 -33 -133 -11 -151 28
-23 98 -24 148 -2 52 23 72 54 107 170 20 66 21 74 7 96 -24 36 -85 45 -152
21z m31 -145 c-18 -52 -38 -96 -45 -98 -16 -5 -14 5 18 101 34 100 40 112 51
100 5 -4 -6 -51 -24 -103z"/>
<path d="M2365 691 c-66 -16 -79 -32 -121 -155 -40 -117 -29 -151 49 -149 23
1 65 2 94 2 l51 1 21 54 c41 110 42 106 -27 106 -66 0 -72 -6 -65 -55 4 -22
-1 -35 -15 -48 -11 -10 -23 -14 -26 -9 -9 15 57 195 73 200 11 4 13 -2 8 -27
l-7 -32 52 3 c58 3 75 20 64 62 -11 45 -76 65 -151 47z"/>
<path d="M2772 690 c-60 -14 -102 -73 -87 -120 3 -11 28 -33 55 -49 50 -31 62
-55 38 -79 -23 -23 -38 -13 -38 23 0 34 -1 35 -40 35 -44 0 -63 -22 -58 -68 4
-37 58 -57 133 -47 77 9 115 43 118 105 2 43 1 45 -50 79 -55 35 -63 50 -38
71 18 15 35 5 35 -21 0 -16 7 -19 44 -19 41 0 45 2 51 30 8 38 2 47 -43 60
-42 11 -72 11 -120 0z"/>
<path d="M3465 691 c-66 -17 -90 -48 -129 -168 -23 -70 -18 -114 14 -131 31
-16 116 -10 159 12 30 16 79 92 66 104 -3 3 -26 6 -52 7 -45 1 -46 0 -65 -44
-12 -29 -22 -41 -29 -34 -12 12 50 195 69 201 9 3 11 -6 6 -37 l-7 -41 45 0
c51 0 63 10 73 60 5 28 2 39 -13 53 -22 20 -94 29 -137 18z"/>
<path d="M1815 678 c-10 -26 -95 -282 -95 -285 0 -2 39 -2 88 -1 87 3 87 3 90
31 3 23 0 27 -22 27 -14 0 -26 4 -26 8 0 4 16 55 35 112 19 57 35 108 35 112
0 14 -100 9 -105 -4z"/>
<path d="M2575 678 c-10 -27 -95 -282 -95 -286 0 -1 24 -2 53 0 l52 3 47 135
c26 74 47 141 47 148 1 8 -15 12 -49 12 -31 0 -52 -5 -55 -12z"/>
<path d="M2976 674 c-11 -29 -6 -44 13 -44 11 0 22 -3 24 -7 3 -5 -10 -55 -29
-113 -19 -58 -34 -109 -34 -113 0 -4 23 -7 52 -5 l52 3 40 118 c40 117 40 117
72 117 31 0 44 13 44 46 0 22 -225 20 -234 -2z"/>
<path d="M3245 681 c-11 -19 -95 -263 -95 -277 0 -12 11 -14 52 -12 l51 3 44
130 c24 72 46 138 49 148 5 15 -2 17 -45 17 -27 0 -52 -4 -56 -9z"/>
<path d="M3630 548 c-41 -79 -76 -146 -78 -150 -2 -5 22 -8 52 -8 50 0 58 3
68 25 6 14 20 25 31 25 15 0 18 -5 13 -25 -6 -24 -5 -25 49 -25 63 0 57 -11
75 135 6 50 14 107 17 128 l6 37 -79 0 -79 0 -75 -142z m118 0 c-10 -48 -21
-63 -37 -54 -11 7 7 52 31 84 16 19 17 15 6 -30z"/>
</g>
</svg>
